<?xml version="1.0" standalone="no"?>
<!DOCTYPE svg PUBLIC "-//W3C//DTD SVG 20010904//EN"
 "http://www.w3.org/TR/2001/REC-SVG-20010904/DTD/svg10.dtd">
<svg version="1.0" xmlns="http://www.w3.org/2000/svg"
 width="128.000000pt" height="128.000000pt" viewBox="0 0 128.000000 128.000000"
 preserveAspectRatio="xMidYMid meet">
<metadata>
Created by potrace 1.16, written by Peter Selinger 2001-2019
</metadata>
<g transform="translate(0.000000,128.000000) scale(0.100000,-0.100000)"
fill="#000000" stroke="none">
<path d="M559 1186 c-136 -48 -198 -204 -133 -335 15 -29 39 -62 55 -73 16
-12 29 -25 29 -28 0 -3 -15 -11 -33 -18 -61 -22 -129 -75 -173 -135 -59 -80
-84 -163 -84 -283 0 -110 17 -156 77 -201 l36 -28 293 -3 c258 -2 297 -1 326
14 84 42 108 90 108 218 0 198 -85 341 -245 412 -22 10 -42 20 -44 21 -3 2 10
16 29 31 32 28 34 28 74 14 57 -21 111 -9 152 32 105 105 19 274 -129 252 -39
-6 -44 -4 -62 24 -55 83 -178 121 -276 86z m183 -65 c19 -13 43 -37 55 -53
l21 -30 -20 -34 c-22 -38 -26 -100 -8 -134 22 -40 -69 -100 -152 -100 -120 0
-207 110 -184 235 8 42 67 112 111 132 45 20 136 12 177 -16z m249 -120 c62
-62 20 -171 -66 -171 -53 0 -95 44 -95 100 0 90 99 133 161 71z m-194 -321
c76 -35 142 -101 180 -178 24 -49 28 -72 31 -163 5 -121 -7 -156 -61 -189 -30
-19 -52 -20 -307 -20 -255 0 -277 1 -307 20 -54 33 -66 68 -61 189 3 91 7 114
31 163 51 104 153 186 261 208 68 15 164 2 233 -30z"/>
<path d="M912 998 c-7 -7 -12 -18 -12 -25 0 -8 -11 -18 -25 -23 -14 -5 -25
-14 -25 -19 0 -10 20 -26 33 -26 4 0 13 -11 20 -24 15 -30 29 -30 43 -2 6 12
14 21 16 19 7 -4 38 23 38 33 0 5 -11 15 -25 21 -14 6 -25 17 -25 23 0 22 -25
36 -38 23z"/>
</g>
</svg>
