<?xml version="1.0" standalone="no"?>
<!DOCTYPE svg PUBLIC "-//W3C//DTD SVG 20010904//EN"
 "http://www.w3.org/TR/2001/REC-SVG-20010904/DTD/svg10.dtd">
<svg version="1.0" xmlns="http://www.w3.org/2000/svg"
 width="64.000000pt" height="64.000000pt" viewBox="0 0 64.000000 64.000000"
 preserveAspectRatio="xMidYMid meet">

<g transform="translate(0.000000,64.000000) scale(0.100000,-0.100000)"
fill="#000000" stroke="none">
<path d="M205 566 c-60 -28 -127 -99 -143 -154 -15 -50 -15 -134 0 -184 17
-56 87 -131 148 -157 68 -29 152 -30 217 -1 217 96 219 402 3 499 -64 29 -159
28 -225 -3z m243 -33 c157 -97 161 -325 6 -423 -119 -75 -273 -38 -349 84 -26
44 -30 58 -30 125 0 65 4 83 28 123 52 89 132 131 235 124 47 -3 75 -11 110
-33z"/>
<path d="M142 428 c3 -7 14 -14 26 -16 15 -2 22 -10 22 -26 0 -46 52 -60 67
-19 4 10 14 23 22 30 19 14 15 16 -67 32 -67 14 -75 14 -70 -1z m93 -48 c3 -5
-1 -10 -10 -10 -9 0 -13 5 -10 10 3 6 8 10 10 10 2 0 7 -4 10 -10z"/>
<path d="M411 426 c-51 -10 -83 -36 -45 -36 9 0 14 -3 11 -6 -3 -4 -2 -15 4
-25 20 -38 77 -11 64 30 -5 16 -1 20 21 23 31 3 47 29 17 27 -10 -1 -42 -6
-72 -13z m9 -46 c0 -5 -4 -10 -10 -10 -5 0 -10 5 -10 10 0 6 5 10 10 10 6 0
10 -4 10 -10z"/>
<path d="M259 271 c-21 -22 -29 -39 -29 -65 l0 -36 90 0 90 0 0 36 c0 47 -45
94 -90 94 -22 0 -41 -9 -61 -29z m112 -22 c37 -37 22 -54 -51 -54 -53 0 -65 3
-68 17 -5 25 34 58 68 58 17 0 39 -9 51 -21z"/>
</g>
</svg>
