<?xml version="1.0" standalone="no"?>
<!DOCTYPE svg PUBLIC "-//W3C//DTD SVG 20010904//EN"
 "http://www.w3.org/TR/2001/REC-SVG-20010904/DTD/svg10.dtd">
<svg version="1.0" xmlns="http://www.w3.org/2000/svg"
 width="128.000000pt" height="128.000000pt" viewBox="0 0 128.000000 128.000000"
 preserveAspectRatio="xMidYMid meet">

<g transform="translate(0.000000,128.000000) scale(0.100000,-0.100000)"
fill="#000000" stroke="none">
<path d="M550 1184 c-251 -49 -436 -251 -457 -500 -28 -333 258 -619 591 -591
220 19 406 165 478 375 29 86 32 247 5 333 -50 162 -192 306 -355 361 -56 19
-211 32 -262 22z m192 -55 c226 -47 398 -259 398 -489 0 -131 -53 -254 -149
-351 -199 -199 -503 -199 -702 0 -199 199 -199 503 0 702 123 123 287 173 453
138z"/>
<path d="M281 866 c-14 -17 1 -32 44 -41 65 -15 63 -13 58 -59 -4 -36 -1 -47
18 -65 52 -48 129 -6 120 67 -1 6 7 12 17 12 28 0 46 24 29 39 -11 9 -239 61
-267 61 -4 0 -13 -6 -19 -14z m188 -100 c9 -10 8 -16 -4 -26 -21 -17 -51 6
-34 26 6 8 15 14 19 14 4 0 13 -6 19 -14z"/>
<path d="M830 852 c-109 -24 -125 -29 -125 -47 0 -13 8 -21 23 -23 16 -3 22
-10 22 -28 0 -33 42 -74 75 -74 31 0 75 41 75 70 0 12 -5 30 -10 40 -9 17 -6
20 17 26 84 19 88 21 88 40 0 27 -21 26 -165 -4z m18 -95 c4 -20 -25 -34 -40
-19 -15 15 -1 44 19 40 10 -2 19 -11 21 -21z"/>
<path d="M564 581 c-73 -33 -117 -116 -106 -203 l4 -38 179 0 c98 0 179 3 180
8 0 4 2 18 3 31 5 45 -14 114 -40 149 -31 40 -94 72 -144 72 -19 0 -54 -9 -76
-19z m131 -45 c40 -17 65 -53 75 -106 l7 -40 -137 0 -138 0 5 33 c7 49 35 90
73 109 42 22 70 22 115 4z"/>
</g>
</svg>
