<?xml version="1.0" standalone="no"?>
<!DOCTYPE svg PUBLIC "-//W3C//DTD SVG 20010904//EN"
 "http://www.w3.org/TR/2001/REC-SVG-20010904/DTD/svg10.dtd">
<svg version="1.0" xmlns="http://www.w3.org/2000/svg"
 width="128.000000pt" height="128.000000pt" viewBox="0 0 128.000000 128.000000"
 preserveAspectRatio="xMidYMid meet">

<g transform="translate(0.000000,128.000000) scale(0.100000,-0.100000)"
fill="#000000" stroke="none">
<path d="M437 1124 c-4 -4 -7 -29 -7 -56 l0 -48 -158 0 c-110 0 -162 -4 -170
-12 -16 -16 -16 -296 0 -349 6 -22 26 -57 45 -78 l33 -39 0 -127 c0 -136 6
-160 55 -205 l27 -25 366 -3 c354 -2 368 -2 400 18 55 34 72 85 72 228 l0 124
35 41 c19 22 37 54 40 71 3 17 5 103 3 191 l-3 160 -162 3 -162 2 -3 53 -3 52
-201 3 c-110 1 -203 -1 -207 -4z m363 -74 l0 -30 -163 0 -163 0 2 28 c1 15 2
28 3 30 0 1 73 2 161 2 l160 0 0 -30z m330 -227 c0 -166 -9 -194 -72 -233 -29
-18 -51 -20 -195 -20 l-163 0 0 25 c0 25 -1 26 -62 23 -57 -3 -63 -5 -66 -25
-3 -23 -5 -23 -165 -23 -145 0 -166 2 -195 20 -57 35 -72 84 -72 243 l0 137
495 0 495 0 0 -147z m-480 -298 c0 -33 -4 -45 -15 -45 -11 0 -15 12 -15 45 0
33 4 45 15 45 11 0 15 -12 15 -45z m-80 -45 c0 -45 16 -54 86 -48 37 3 39 5
44 43 l5 40 173 5 172 5 0 -108 c0 -114 -12 -157 -49 -177 -13 -6 -149 -10
-369 -10 l-350 0 -26 31 c-25 29 -26 36 -26 147 l0 117 170 -3 170 -3 0 -39z"/>
<path d="M522 697 c-25 -30 2 -38 119 -35 106 3 114 4 114 23 0 19 -8 20 -111
23 -82 2 -114 -1 -122 -11z"/>
</g>
</svg>
