<?xml version="1.0" standalone="no"?>
<!DOCTYPE svg PUBLIC "-//W3C//DTD SVG 20010904//EN"
 "http://www.w3.org/TR/2001/REC-SVG-20010904/DTD/svg10.dtd">
<svg version="1.0" xmlns="http://www.w3.org/2000/svg"
 width="128.000000pt" height="128.000000pt" viewBox="0 0 128.000000 128.000000"
 preserveAspectRatio="xMidYMid meet">
<metadata>
Created by potrace 1.16, written by Peter Selinger 2001-2019
</metadata>
<g transform="translate(0.000000,128.000000) scale(0.100000,-0.100000)"
fill="#000000" stroke="none">
<path d="M579 1185 c-29 -16 -59 -56 -59 -79 0 -8 -27 -29 -59 -46 -158 -84
-244 -251 -218 -421 11 -75 -1 -130 -43 -196 -55 -87 -32 -185 54 -224 31 -14
65 -19 138 -19 l96 0 19 -37 c54 -111 212 -111 266 0 l19 37 96 0 c73 0 107 5
138 19 85 39 110 139 55 222 -41 61 -54 120 -43 196 24 174 -61 338 -219 423
-32 17 -59 38 -59 46 0 24 -31 64 -61 80 -35 18 -86 17 -120 -1z m114 -57 l22
-23 -37 -3 c-21 -2 -55 -2 -76 0 l-37 3 23 23 c13 13 34 22 52 22 18 0 39 -9
53 -22z m89 -106 c62 -27 144 -105 174 -164 31 -61 44 -153 31 -225 -12 -71 3
-142 43 -203 47 -71 36 -137 -27 -169 -30 -15 -696 -15 -726 0 -63 32 -74 99
-27 167 39 58 54 131 43 207 -18 127 17 235 104 316 54 51 79 66 138 86 59 19
189 12 247 -15z m-52 -832 c0 -6 -11 -22 -25 -35 -34 -35 -96 -35 -130 0 -14
13 -25 29 -25 35 0 6 34 10 90 10 56 0 90 -4 90 -10z"/>
</g>
</svg>
