<?xml version="1.0" standalone="no"?>
<!DOCTYPE svg PUBLIC "-//W3C//DTD SVG 20010904//EN"
 "http://www.w3.org/TR/2001/REC-SVG-20010904/DTD/svg10.dtd">
<svg version="1.0" xmlns="http://www.w3.org/2000/svg"
 width="128.000000pt" height="128.000000pt" viewBox="0 0 128.000000 128.000000"
 preserveAspectRatio="xMidYMid meet">

<g transform="translate(0.000000,128.000000) scale(0.100000,-0.100000)"
fill="#000000" stroke="none">
<path d="M214 1150 c-60 -6 -98 -29 -120 -73 -15 -28 -17 -77 -17 -424 0 -367
2 -394 20 -425 10 -18 33 -41 51 -51 31 -18 59 -19 491 -19 514 0 498 -3 540
72 20 36 21 50 21 424 0 361 -1 389 -19 424 -39 75 -32 74 -500 76 -229 0
-439 -1 -467 -4z m907 -78 c28 -31 30 -38 27 -100 l-3 -67 -510 0 -510 0 -1
50 c-3 73 15 117 53 136 29 14 86 16 474 15 l441 -1 29 -33z m11 -218 c17 -5
18 -28 18 -295 l0 -289 -29 -32 -29 -33 -439 0 c-241 0 -450 3 -465 8 -15 4
-36 19 -45 34 -16 24 -18 58 -19 313 -1 157 0 288 2 291 4 8 982 10 1006 3z"/>
<path d="M408 992 c-25 -29 9 -35 224 -37 117 0 219 1 226 3 13 4 17 42 5 43
-5 0 -106 1 -226 2 -168 2 -221 -1 -229 -11z"/>
<path d="M588 612 c-18 -10 -28 -25 -28 -40 0 -21 4 -23 25 -18 24 6 25 4 25
-34 0 -36 -2 -40 -25 -40 -20 0 -25 -5 -25 -25 0 -25 1 -25 80 -25 79 0 80 0
80 25 0 20 -5 25 -25 25 -24 0 -25 2 -25 75 l0 75 -27 0 c-16 0 -40 -8 -55
-18z"/>
</g>
</svg>
