<?xml version="1.0" standalone="no"?>
<!DOCTYPE svg PUBLIC "-//W3C//DTD SVG 20010904//EN"
 "http://www.w3.org/TR/2001/REC-SVG-20010904/DTD/svg10.dtd">
<svg version="1.0" xmlns="http://www.w3.org/2000/svg"
 width="128.000000pt" height="128.000000pt" viewBox="0 0 128.000000 128.000000"
 preserveAspectRatio="xMidYMid meet">
<metadata>
Created by potrace 1.16, written by Peter Selinger 2001-2019
</metadata>
<g transform="translate(0.000000,128.000000) scale(0.100000,-0.100000)"
fill="#000000" stroke="none">
<path d="M434 1107 c-17 -15 -29 -38 -33 -62 l-6 -40 -109 -2 c-120 -3 -145
-12 -171 -63 -14 -26 -15 -80 -13 -385 l3 -355 33 -32 32 -33 455 -3 c395 -2
459 -1 485 13 63 33 63 31 64 413 1 377 0 384 -55 425 -22 16 -44 19 -133 19
l-106 1 -6 39 c-5 25 -17 47 -36 63 -29 25 -33 25 -203 25 -167 0 -175 -1
-201 -23z m375 -41 c6 -7 13 -33 16 -56 2 -23 6 -45 9 -48 3 -3 60 -6 126 -6
180 -2 165 32 165 -392 l0 -346 -24 -19 c-22 -18 -45 -19 -461 -19 -427 0
-438 0 -464 21 l-26 20 0 344 c0 423 -14 388 158 391 66 1 125 5 131 9 6 3 11
25 11 49 0 23 5 47 12 54 18 18 332 17 347 -2z"/>
<path d="M925 855 c-14 -13 -25 -36 -25 -50 0 -33 42 -75 75 -75 14 0 37 11
50 25 14 13 25 36 25 50 0 14 -11 37 -25 50 -13 14 -36 25 -50 25 -14 0 -37
-11 -50 -25z m73 -48 c4 -20 -25 -34 -40 -19 -15 15 -1 44 19 40 10 -2 19 -11
21 -21z"/>
<path d="M550 815 c-61 -19 -125 -76 -157 -139 -38 -72 -38 -170 0 -242 105
-205 387 -204 488 2 28 56 31 71 27 131 -6 108 -57 186 -150 234 -54 27 -148
34 -208 14z m157 -46 c158 -59 204 -257 87 -372 -107 -107 -286 -78 -356 56
-43 82 -23 202 44 264 56 53 159 77 225 52z"/>
</g>
</svg>
