<?xml version="1.0" standalone="no"?>
<!DOCTYPE svg PUBLIC "-//W3C//DTD SVG 20010904//EN"
 "http://www.w3.org/TR/2001/REC-SVG-20010904/DTD/svg10.dtd">
<svg version="1.0" xmlns="http://www.w3.org/2000/svg"
 width="128.000000pt" height="128.000000pt" viewBox="0 0 128.000000 128.000000"
 preserveAspectRatio="xMidYMid meet">
<metadata>
Created by potrace 1.16, written by Peter Selinger 2001-2019
</metadata>
<g transform="translate(0.000000,128.000000) scale(0.100000,-0.100000)"
fill="#000000" stroke="none">
<path d="M432 1094 c-117 -58 -163 -191 -108 -310 24 -52 84 -110 124 -120 36
-10 26 -19 -35 -32 -80 -17 -154 -53 -207 -102 -65 -60 -86 -110 -86 -202 0
-88 17 -119 84 -149 37 -17 70 -19 335 -19 281 0 297 1 339 21 61 30 82 68 82
150 0 144 -111 260 -290 301 -55 13 -61 21 -27 39 12 6 39 27 59 47 l37 35
141 -91 c78 -51 145 -92 149 -92 12 0 131 183 131 202 0 10 -55 52 -137 105
l-138 90 -60 -5 c-56 -4 -62 -2 -72 20 -54 118 -204 171 -321 112z m188 -44
c52 -27 97 -85 80 -105 -9 -11 -9 -25 3 -63 17 -58 7 -90 -39 -134 -55 -51
-144 -64 -212 -29 -46 23 -67 46 -87 94 -27 64 -13 149 33 201 48 53 154 71
222 36z m373 -213 c59 -38 107 -72 107 -75 0 -3 -18 -34 -41 -68 l-40 -63
-102 66 c-56 36 -109 73 -118 82 -19 18 -52 111 -43 120 7 8 107 18 119 12 6
-3 58 -36 118 -74z m-428 -212 c0 -13 -8 -21 -22 -23 -19 -3 -23 1 -23 23 0
22 4 26 23 23 14 -2 22 -10 22 -23z m-80 -55 c25 -27 82 -27 111 1 21 20 27
21 69 10 158 -40 245 -130 245 -255 0 -49 -4 -60 -26 -81 -15 -14 -41 -27 -58
-30 -17 -4 -158 -5 -313 -3 -269 3 -283 4 -310 24 -27 20 -28 25 -28 101 0 72
3 83 28 116 41 54 92 89 166 114 82 28 93 28 116 3z"/>
</g>
</svg>
