<?xml version="1.0" standalone="no"?>
<!DOCTYPE svg PUBLIC "-//W3C//DTD SVG 20010904//EN"
 "http://www.w3.org/TR/2001/REC-SVG-20010904/DTD/svg10.dtd">
<svg version="1.0" xmlns="http://www.w3.org/2000/svg"
 width="128.000000pt" height="128.000000pt" viewBox="0 0 128.000000 128.000000"
 preserveAspectRatio="xMidYMid meet">

<g transform="translate(0.000000,128.000000) scale(0.100000,-0.100000)"
fill="#000000" stroke="none">
<path d="M302 911 c-101 -35 -172 -116 -194 -224 -23 -108 22 -227 110 -294
75 -57 114 -63 423 -63 322 0 349 5 431 79 70 63 98 125 98 221 0 96 -28 158
-98 221 -82 74 -109 79 -436 79 -246 -1 -288 -3 -334 -19z m683 -58 c90 -48
135 -123 135 -223 0 -105 -48 -180 -145 -226 -49 -23 -56 -24 -335 -23 -306 0
-329 3 -395 53 -19 15 -47 48 -62 74 -24 40 -28 58 -28 122 0 64 4 82 28 122
15 26 43 59 62 74 68 52 86 54 405 51 281 -2 297 -3 335 -24z"/>
<path d="M307 773 c-4 -3 -7 -23 -7 -44 0 -37 -1 -38 -42 -41 l-43 -3 0 -55 0
-55 42 -3 c42 -3 42 -3 45 -45 l3 -42 49 -3 c57 -4 70 6 70 50 1 31 4 33 41
38 l40 5 0 55 0 55 -37 3 c-31 3 -38 7 -40 25 -2 36 -3 41 -11 55 -8 13 -98
17 -110 5z m65 -71 c-6 -38 15 -62 53 -62 19 0 35 -4 35 -10 0 -5 -15 -10 -34
-10 -39 0 -48 -10 -50 -53 -2 -49 -24 -45 -28 5 -3 43 -3 43 -45 46 -48 4 -59
22 -14 22 51 0 61 9 61 52 0 27 4 38 13 35 6 -2 11 -13 9 -25z"/>
<path d="M772 747 c-28 -30 -28 -61 0 -87 27 -25 49 -25 78 -2 43 35 15 112
-39 112 -10 0 -27 -10 -39 -23z m48 -43 c0 -8 -5 -12 -10 -9 -6 4 -8 11 -5 16
9 14 15 11 15 -7z"/>
<path d="M922 750 c-55 -52 11 -137 73 -96 33 22 35 78 3 100 -30 21 -50 20
-76 -4z m48 -46 c0 -8 -5 -12 -10 -9 -6 4 -8 11 -5 16 9 14 15 11 15 -7z"/>
<path d="M785 608 c-42 -24 -47 -63 -12 -96 28 -27 48 -28 77 -4 30 24 30 70
0 94 -26 21 -37 22 -65 6z m35 -54 c0 -8 -5 -12 -10 -9 -6 4 -8 11 -5 16 9 14
15 11 15 -7z"/>
<path d="M922 600 c-12 -12 -22 -32 -22 -45 0 -27 35 -65 60 -65 32 0 60 30
60 65 0 58 -57 83 -98 45z m48 -46 c0 -8 -5 -12 -10 -9 -6 4 -8 11 -5 16 9 14
15 11 15 -7z"/>
</g>
</svg>
