<?xml version="1.0" standalone="no"?>
<!DOCTYPE svg PUBLIC "-//W3C//DTD SVG 20010904//EN"
 "http://www.w3.org/TR/2001/REC-SVG-20010904/DTD/svg10.dtd">
<svg version="1.0" xmlns="http://www.w3.org/2000/svg"
 width="128.000000pt" height="128.000000pt" viewBox="0 0 128.000000 128.000000"
 preserveAspectRatio="xMidYMid meet">
<metadata>
Created by potrace 1.16, written by Peter Selinger 2001-2019
</metadata>
<g transform="translate(0.000000,128.000000) scale(0.100000,-0.100000)"
fill="#000000" stroke="none">
<path d="M166 1199 c-58 -6 -86 -34 -87 -88 -4 -202 0 -961 5 -979 17 -51 26
-52 561 -52 l497 0 29 29 29 29 0 496 c0 342 -3 503 -11 519 -22 48 -28 48
-515 50 -252 1 -481 -1 -508 -4z m968 -59 c14 -10 16 -29 14 -99 l-3 -86 -510
0 -509 0 -3 65 c-4 87 7 123 38 130 13 4 234 6 491 5 375 -1 469 -4 482 -15z
m14 -465 l2 -229 -111 109 -111 109 -71 -74 c-40 -41 -102 -107 -138 -147
l-66 -72 -32 39 c-18 22 -38 40 -46 40 -8 0 -76 -72 -151 -160 l-136 -160 -68
0 c-51 0 -71 4 -81 17 -11 13 -14 88 -15 382 -1 201 0 368 2 372 1 3 231 5
511 5 l508 -1 3 -230z m2 -415 c0 -69 -4 -110 -12 -118 -8 -8 -57 -12 -158
-12 l-145 1 -73 95 c-40 53 -71 101 -69 108 3 6 56 66 118 134 l112 123 114
-113 113 -113 0 -105z m-475 -1 l95 -124 -106 -3 c-58 -1 -150 -1 -205 0
l-100 3 107 128 c59 70 109 125 111 123 2 -2 46 -59 98 -127z"/>
<path d="M302 1110 c-47 -44 -15 -130 48 -130 38 0 70 34 70 75 0 41 -32 75
-70 75 -14 0 -36 -9 -48 -20z m67 -44 c17 -20 -13 -43 -34 -26 -12 10 -13 16
-4 26 6 8 15 14 19 14 4 0 13 -6 19 -14z"/>
<path d="M554 1115 c-13 -32 7 -35 230 -35 227 0 261 5 235 37 -17 20 -457 19
-465 -2z"/>
<path d="M558 1042 c-25 -30 9 -35 224 -34 117 0 219 1 226 1 13 1 17 40 5 42
-5 1 -106 2 -226 3 -168 1 -221 -2 -229 -12z"/>
</g>
</svg>
