<?xml version="1.0" standalone="no"?>
<!DOCTYPE svg PUBLIC "-//W3C//DTD SVG 20010904//EN"
 "http://www.w3.org/TR/2001/REC-SVG-20010904/DTD/svg10.dtd">
<svg version="1.0" xmlns="http://www.w3.org/2000/svg"
 width="128.000000pt" height="128.000000pt" viewBox="0 0 128.000000 128.000000"
 preserveAspectRatio="xMidYMid meet">

<g transform="translate(0.000000,128.000000) scale(0.100000,-0.100000)"
fill="#000000" stroke="none">
<path d="M180 1163 c-19 -10 -45 -33 -57 -52 -23 -34 -23 -37 -23 -371 0 -334
0 -337 23 -371 33 -50 79 -69 166 -69 l73 0 -5 -27 c-3 -16 -12 -56 -20 -90
-13 -53 -13 -64 -1 -74 15 -13 12 -15 173 114 l95 76 240 3 c352 4 329 -26
329 438 0 367 -1 376 -60 416 -26 18 -55 19 -463 22 -400 2 -438 1 -470 -15z
m900 -48 c18 -9 32 -27 38 -48 11 -39 9 -645 -2 -670 -19 -42 -53 -47 -297
-47 l-232 0 -93 -75 c-51 -41 -95 -75 -98 -75 -2 0 2 28 10 62 8 34 13 67 10
74 -3 8 -40 13 -111 16 -103 3 -108 4 -131 31 l-24 28 0 327 c0 353 1 361 54
382 11 5 207 9 434 9 349 1 418 -1 442 -14z"/>
<path d="M612 1043 c-6 -15 -21 -61 -33 -100 l-23 -73 -102 0 c-70 0 -105 -4
-112 -13 -15 -18 -8 -26 81 -91 51 -38 77 -63 73 -72 -3 -8 -17 -52 -31 -99
-34 -109 -24 -129 39 -82 17 13 54 40 82 60 l51 37 83 -60 c46 -33 88 -59 94
-57 20 7 17 42 -13 128 l-29 87 85 61 c115 84 112 95 -29 99 l-106 3 -34 97
c-36 104 -57 125 -76 75z m53 -161 l20 -57 74 -5 75 -5 -57 -43 c-31 -23 -57
-47 -57 -51 0 -5 9 -37 19 -70 10 -34 17 -61 14 -61 -2 0 -19 11 -36 24 -83
61 -77 60 -138 16 -29 -23 -55 -37 -57 -32 -1 4 7 34 18 66 11 32 18 62 15 66
-2 4 -30 25 -61 46 l-57 39 79 5 78 5 19 63 c11 35 22 60 25 57 4 -4 16 -32
27 -63z"/>
</g>
</svg>
