<?xml version="1.0" standalone="no"?>
<!DOCTYPE svg PUBLIC "-//W3C//DTD SVG 20010904//EN"
 "http://www.w3.org/TR/2001/REC-SVG-20010904/DTD/svg10.dtd">
<svg version="1.0" xmlns="http://www.w3.org/2000/svg"
 width="128.000000pt" height="128.000000pt" viewBox="0 0 128.000000 128.000000"
 preserveAspectRatio="xMidYMid meet">

<g transform="translate(0.000000,128.000000) scale(0.100000,-0.100000)"
fill="#000000" stroke="none">
<path d="M284 1168 c-4 -6 -8 -79 -8 -162 l-1 -150 -99 -38 c-55 -20 -103 -41
-108 -46 -8 -8 93 -297 110 -314 5 -5 27 -2 50 6 23 8 43 14 44 13 0 -1 2 -86
3 -188 2 -178 6 -209 25 -209 4 0 91 60 191 134 l183 135 51 -37 c27 -20 110
-81 184 -134 73 -54 137 -98 142 -98 4 0 11 5 15 11 9 15 9 1062 0 1077 -10
17 -772 17 -782 0z m738 -55 c5 -64 40 -58 -347 -58 l-350 0 0 30 c0 17 1 33
3 38 2 4 158 7 348 7 320 0 344 -1 346 -17z m4 -530 c1 -233 -1 -423 -4 -423
-2 0 -78 54 -168 120 -90 66 -170 120 -178 120 -9 0 -89 -54 -179 -120 -90
-66 -166 -120 -169 -120 -10 0 -3 329 7 338 6 6 82 36 170 68 88 31 166 62
173 69 10 9 1 41 -43 160 -30 82 -59 153 -64 158 -4 4 -57 -10 -117 -33 -60
-22 -114 -40 -120 -40 -10 0 -17 105 -8 121 2 4 160 6 351 5 l348 -1 1 -422z
m-437 192 c22 -60 39 -110 38 -110 -8 -5 -395 -145 -406 -147 -10 -2 -28 32
-57 111 -24 63 -42 116 -41 116 20 14 414 151 419 147 4 -4 25 -56 47 -117z"/>
<path d="M348 776 c-76 -28 -143 -57 -149 -63 -14 -14 -3 -33 20 -33 22 0 281
96 294 109 12 12 2 41 -15 40 -7 -1 -75 -24 -150 -53z"/>
<path d="M379 681 c-144 -55 -149 -57 -149 -76 0 -29 24 -25 163 26 145 53
174 69 163 88 -12 19 -46 11 -177 -38z"/>
</g>
</svg>
