<?xml version="1.0" standalone="no"?>
<!DOCTYPE svg PUBLIC "-//W3C//DTD SVG 20010904//EN"
 "http://www.w3.org/TR/2001/REC-SVG-20010904/DTD/svg10.dtd">
<svg version="1.0" xmlns="http://www.w3.org/2000/svg"
 width="128.000000pt" height="128.000000pt" viewBox="0 0 128.000000 128.000000"
 preserveAspectRatio="xMidYMid meet">
<metadata>
Created by potrace 1.16, written by Peter Selinger 2001-2019
</metadata>
<g transform="translate(0.000000,128.000000) scale(0.100000,-0.100000)"
fill="#000000" stroke="none">
<path d="M745 1125 c-22 -21 -25 -33 -25 -90 0 -44 -4 -67 -12 -69 -7 -2 -42
-9 -78 -15 -37 -7 -105 -31 -160 -58 -220 -107 -345 -316 -313 -521 30 -188
113 -264 113 -103 0 42 7 80 19 106 38 84 157 160 304 195 122 29 117 32 117
-48 0 -59 3 -72 23 -90 13 -12 33 -22 46 -22 29 0 356 309 365 344 3 14 2 35
-3 48 -6 13 -81 96 -168 186 -170 175 -183 183 -228 137z m204 -185 c83 -87
151 -163 151 -168 0 -17 -319 -314 -330 -307 -5 3 -10 39 -10 78 0 97 -4 102
-80 94 -211 -23 -380 -119 -441 -252 l-27 -60 -7 57 c-31 244 172 474 462 525
103 18 103 18 103 128 0 50 5 65 21 65 4 0 75 -72 158 -160z"/>
</g>
</svg>
