<?xml version="1.0" standalone="no"?>
<!DOCTYPE svg PUBLIC "-//W3C//DTD SVG 20010904//EN"
 "http://www.w3.org/TR/2001/REC-SVG-20010904/DTD/svg10.dtd">
<svg version="1.0" xmlns="http://www.w3.org/2000/svg"
 width="128.000000pt" height="128.000000pt" viewBox="0 0 128.000000 128.000000"
 preserveAspectRatio="xMidYMid meet">
<metadata>
Created by potrace 1.16, written by Peter Selinger 2001-2019
</metadata>
<g transform="translate(0.000000,128.000000) scale(0.100000,-0.100000)"
fill="#000000" stroke="none">
<path d="M480 1137 c-174 -59 -293 -183 -344 -356 -20 -67 -21 -207 -2 -277
20 -75 73 -168 129 -227 l49 -52 -7 -92 c-6 -78 -4 -94 8 -99 9 -3 52 16 99
43 l83 48 112 -3 c172 -6 294 40 403 148 99 99 150 225 150 370 0 239 -149
436 -379 504 -82 24 -220 21 -301 -7z m252 -32 c26 -3 80 -22 119 -42 349
-175 348 -675 -3 -847 -87 -43 -173 -56 -283 -43 -46 5 -81 5 -88 -1 -7 -5
-37 -23 -68 -40 l-56 -32 5 74 4 74 -55 55 c-35 36 -69 84 -94 133 -38 78 -38
78 -38 204 0 126 0 126 38 204 50 100 122 173 219 220 71 36 169 57 228 50 14
-2 46 -6 72 -9z"/>
<path d="M620 811 c-91 -82 -165 -155 -165 -163 0 -7 28 -26 62 -43 34 -16 64
-33 68 -36 3 -4 -26 -57 -65 -119 -70 -109 -78 -137 -36 -128 18 4 346 295
346 307 0 13 -20 25 -82 52 -32 13 -58 27 -58 31 0 4 31 56 69 115 67 106 76
133 42 133 -9 0 -90 -67 -181 -149z m25 -72 c-32 -49 -26 -58 51 -89 30 -13
53 -26 52 -30 -5 -11 -138 -133 -138 -126 0 4 12 24 26 46 14 21 23 43 20 49
-4 6 -34 22 -66 37 -33 15 -60 28 -60 31 0 7 125 122 133 123 4 0 -4 -18 -18
-41z"/>
</g>
</svg>
