<?xml version="1.0" standalone="no"?>
<!DOCTYPE svg PUBLIC "-//W3C//DTD SVG 20010904//EN" "http://www.w3.org/TR/2001/REC-SVG-20010904/DTD/svg10.dtd">
<svg xmlns="http://www.w3.org/2000/svg" version="1.0" width="226.000000pt" height="206.000000pt" viewBox="0 0 226.000000 206.000000" preserveAspectRatio="xMidYMid meet">
<metadata>
Created by potrace 1.16, written by Peter Selinger 2001-2019
<meta name="Producer" content="Online-Convert"/></metadata>
<g transform="translate(0.000000,206.000000) scale(0.100000,-0.100000)" fill="#000000" stroke="none">
<path d="M920 1716 c-155 -35 -282 -106 -400 -226 -317 -320 -301 -831 35 -1138 56 -52 144 -108 214 -138 171 -74 397 -83 566 -23 84 30 122 33 190 16 159 -39 274 -59 298 -53 15 3 34 18 43 31 16 24 14 35 -26 216 l-42 190 26 65 c14 35 33 106 42 157 72 410 -206 816 -619 903 -81 17 -250 17 -327 0z m385 -90 c189 -60 345 -198 430 -378 51 -108 68 -186 68 -308 -1 -116 -11 -172 -50 -269 -29 -72 -28 -80 12 -256 27 -119 39 -185 33 -190 -3 -3 -45 4 -94 15 -49 11 -123 27 -164 37 -102 23 -121 21 -225 -18 -86 -32 -96 -33 -230 -34 -132 0 -145 2 -228 31 -123 44 -190 87 -282 179 -88 88 -145 184 -185 310 -32 100 -32 290 0 390 83 265 280 450 545 511 94 22 271 12 370 -20z"/>
</g>
</svg>
