<?xml version="1.0" standalone="no"?>
<!DOCTYPE svg PUBLIC "-//W3C//DTD SVG 20010904//EN"
 "http://www.w3.org/TR/2001/REC-SVG-20010904/DTD/svg10.dtd">
<svg version="1.0" xmlns="http://www.w3.org/2000/svg"
 width="128.000000pt" height="128.000000pt" viewBox="0 0 128.000000 128.000000"
 preserveAspectRatio="xMidYMid meet">

<g transform="translate(0.000000,128.000000) scale(0.100000,-0.100000)"
fill="#000000" stroke="none">
<path d="M423 1121 c-89 -22 -153 -96 -161 -185 -5 -67 9 -112 52 -162 l34
-40 -55 -28 c-68 -36 -137 -114 -164 -186 -25 -67 -35 -190 -20 -246 15 -57
75 -110 133 -119 24 -4 142 -5 264 -3 l221 3 36 28 c42 32 62 66 72 120 l7 37
122 0 c140 0 176 14 203 78 18 44 13 149 -11 205 -19 47 -88 121 -127 137 -30
13 -30 13 -11 34 48 52 57 134 21 192 -41 68 -139 95 -208 59 -94 -48 -116
-177 -44 -257 9 -10 11 -18 5 -18 -5 0 -33 -18 -61 -40 l-51 -40 -42 21 c-24
12 -44 22 -46 24 -1 1 13 18 31 37 62 66 73 154 30 239 -43 84 -141 131 -230
110z m135 -73 c67 -41 90 -134 52 -209 -53 -102 -203 -114 -269 -20 -104 145
64 323 217 229z m421 -69 c25 -25 31 -39 31 -74 0 -85 -75 -134 -154 -101 -71
30 -85 130 -25 180 45 38 107 36 148 -5z m9 -255 c88 -37 136 -114 137 -222 0
-105 -10 -112 -165 -112 -131 0 -121 -5 -135 75 -8 45 -36 105 -73 154 -31 42
-24 56 48 94 61 31 130 36 188 11z m-370 -59 c100 -55 157 -148 168 -276 8
-90 -9 -139 -58 -169 -31 -18 -50 -20 -258 -20 -208 0 -227 2 -258 20 -60 37
-78 126 -47 243 24 93 78 162 159 204 54 28 79 33 161 30 66 -3 89 -8 133 -32z"/>
</g>
</svg>
