<?xml version="1.0" standalone="no"?>
<!DOCTYPE svg PUBLIC "-//W3C//DTD SVG 20010904//EN"
 "http://www.w3.org/TR/2001/REC-SVG-20010904/DTD/svg10.dtd">
<svg version="1.0" xmlns="http://www.w3.org/2000/svg"
 width="128.000000pt" height="128.000000pt" viewBox="0 0 128.000000 128.000000"
 preserveAspectRatio="xMidYMid meet">
<metadata>
Created by potrace 1.16, written by Peter Selinger 2001-2019
</metadata>
<g transform="translate(0.000000,128.000000) scale(0.100000,-0.100000)"
fill="#000000" stroke="none">
<path d="M594 1100 c-18 -7 -22 -19 -27 -85 -6 -87 -36 -157 -80 -189 -21 -15
-30 -17 -39 -8 -17 17 -252 17 -264 0 -7 -10 -11 -546 -5 -625 1 -17 252 -18
268 -2 8 8 17 7 34 -5 33 -22 395 -24 438 -1 34 17 56 64 48 104 -5 23 -2 30
18 39 35 16 58 67 51 111 -4 29 -1 40 20 62 21 22 25 34 22 70 -3 39 0 46 24
61 34 22 54 82 39 120 -21 55 -49 63 -224 65 -87 0 -160 3 -162 5 -1 1 2 29 8
60 22 122 -29 229 -110 227 -21 0 -47 -4 -59 -9z m103 -67 c28 -42 25 -162 -4
-202 -23 -30 -30 -60 -15 -62 4 0 94 -1 200 -2 179 -2 195 -3 208 -21 31 -42
4 -76 -60 -76 -69 0 -82 -32 -23 -57 20 -10 27 -20 27 -42 0 -36 -15 -49 -65
-53 -44 -3 -62 -33 -28 -45 28 -10 53 -34 53 -52 0 -33 -19 -46 -77 -51 -45
-4 -59 -9 -61 -22 -2 -12 6 -22 25 -29 45 -17 57 -54 27 -83 -13 -13 -46 -16
-200 -16 -174 0 -186 1 -219 23 l-35 22 0 242 0 243 33 14 c43 17 101 85 115
135 7 21 15 66 18 100 7 59 8 61 35 61 20 0 34 -8 46 -27z m-297 -528 l0 -275
-89 0 -89 0 0 268 c0 147 2 270 5 275 2 4 42 7 89 7 l84 0 0 -275z"/>
</g>
</svg>
