<?xml version="1.0" standalone="no"?>
<!DOCTYPE svg PUBLIC "-//W3C//DTD SVG 20010904//EN"
 "http://www.w3.org/TR/2001/REC-SVG-20010904/DTD/svg10.dtd">
<svg version="1.0" xmlns="http://www.w3.org/2000/svg"
 width="128.000000pt" height="128.000000pt" viewBox="0 0 128.000000 128.000000"
 preserveAspectRatio="xMidYMid meet">

<g transform="translate(0.000000,128.000000) scale(0.100000,-0.100000)"
fill="#000000" stroke="none">
<path d="M148 1107 c-47 -17 -47 -22 -48 -380 l0 -338 25 -24 24 -25 231 0
230 0 0 -65 0 -64 -147 0 c-82 0 -154 0 -160 0 -14 -1 -18 -40 -5 -42 4 0 155
-1 336 -2 335 -2 380 2 349 34 -8 8 -59 12 -165 13 l-153 1 -3 63 -3 62 234 0
c221 0 234 1 255 20 26 24 24 -4 24 408 0 294 0 305 -20 325 -20 20 -30 20
-502 21 -265 1 -491 -2 -502 -7z m966 -53 c17 -16 17 -637 0 -654 -7 -7 -160
-9 -485 -8 l-474 3 -3 324 c-1 213 1 328 8 336 15 18 936 18 954 -1z"/>
<path d="M460 950 c-19 -19 -20 -33 -20 -223 0 -185 2 -205 18 -220 10 -10 27
-17 38 -16 23 0 312 187 327 210 24 39 1 63 -162 167 -87 56 -164 102 -170
102 -6 0 -20 -9 -31 -20z m181 -127 c76 -49 139 -91 139 -95 0 -3 -55 -41
-122 -84 -68 -42 -133 -84 -145 -92 l-23 -14 0 186 c0 102 3 186 6 186 4 0 69
-39 145 -87z"/>
</g>
</svg>
